<svg id="Layer_1" data-name="Layer 1" xmlns="http://www.w3.org/2000/svg" viewBox="0 0 136.8 58.6"><defs><style>.cls-1{fill:#fff;}.cls-2{fill:#828383;}.cls-3{fill:#79aa00;}.cls-4{fill:#ffd263;}.cls-5{fill:#ffbf45;}.cls-6{fill:#737482;}.cls-7{fill:#c1ff00;}</style></defs><title>secure_website_shopping-BMS</title><path class="cls-1" d="M116.1,57.1a13.72,13.72,0,0,1-13.7-13.7V13.7a13.7,13.7,0,0,1,27.4,0V43.3A13.68,13.68,0,0,1,116.1,57.1Zm0-52.1a8.71,8.71,0,0,0-8.7,8.7V43.3a8.7,8.7,0,1,0,17.4,0V13.7A8.64,8.64,0,0,0,116.1,5Z"/><path class="cls-1" d="M116.1,0h0V5h0a8.71,8.71,0,0,1,8.7,8.7V43.3a8.71,8.71,0,0,1-8.7,8.7h0v5h0a13.72,13.72,0,0,0,13.7-13.7V13.7A13.66,13.66,0,0,0,116.1,0Z"/><path class="cls-2" d="M0,40.6v14a3.84,3.84,0,0,0,3.9,3.9h126V40.6Z"/><path class="cls-3" d="M0,26.6v14H129.9V22.7H3.9A3.84,3.84,0,0,0,0,26.6Z"/><path class="cls-1" d="M6.6,33.5H8.2a1.22,1.22,0,0,0,.3.9,1.22,1.22,0,0,0,.9.3,1.88,1.88,0,0,0,.8-.2.55.55,0,0,0,.3-.5,1.07,1.07,0,0,0-.2-.6,3.92,3.92,0,0,0-.9-.4,9.65,9.65,0,0,1-2-.9,1.68,1.68,0,0,1-.6-1.4,1.51,1.51,0,0,1,.7-1.4,3.57,3.57,0,0,1,1.9-.6,3.17,3.17,0,0,1,2,.6,1.8,1.8,0,0,1,.7,1.5v.1H10.5a.78.78,0,0,0-.3-.7,1.08,1.08,0,0,0-.8-.2,1.45,1.45,0,0,0-.7.2.57.57,0,0,0,0,1,8.92,8.92,0,0,0,1,.5,4.8,4.8,0,0,1,1.9.9,1.54,1.54,0,0,1,.6,1.4,1.8,1.8,0,0,1-.7,1.5,2.85,2.85,0,0,1-1.9.5,3.17,3.17,0,0,1-2-.6,2.17,2.17,0,0,1-1-1.9Z"/><path class="cls-1" d="M13.2,35.7V28.6h4.7v1.3h-3v1.5h2.5v1.3H14.9v1.8h3v1.3H13.2Z"/><path class="cls-1" d="M18.9,32.9V31.4a2.86,2.86,0,0,1,.8-2.1,2.79,2.79,0,0,1,2-.8,3.28,3.28,0,0,1,2.1.6,2.14,2.14,0,0,1,.7,1.8V31H22.9a1.06,1.06,0,0,0-1.2-1.2,1,1,0,0,0-.9.4,2.13,2.13,0,0,0-.3,1.2v1.5a2.13,2.13,0,0,0,.3,1.2,1,1,0,0,0,.9.4c.4,0,.7-.1.8-.3a1.22,1.22,0,0,0,.3-.9h1.6v.1a2.14,2.14,0,0,1-.7,1.8,3,3,0,0,1-2,.6,2.86,2.86,0,0,1-2.1-.8A3.3,3.3,0,0,1,18.9,32.9Z"/><path class="cls-1" d="M25.6,33.2V28.6h1.7v4.6a1.49,1.49,0,0,0,.3,1,1.5,1.5,0,0,0,1.8,0,1.49,1.49,0,0,0,.3-1V28.6h1.7v4.6a2.41,2.41,0,0,1-.8,1.9,3.3,3.3,0,0,1-2.1.7,2.82,2.82,0,0,1-2.1-.7A2.56,2.56,0,0,1,25.6,33.2Z"/><path class="cls-1" d="M32.7,35.7V28.6h2.5a3.17,3.17,0,0,1,2,.6,1.86,1.86,0,0,1,.7,1.6,1.22,1.22,0,0,1-.3.9,1.46,1.46,0,0,1-.9.6c.4.1.8.3.9.6a1.8,1.8,0,0,1,.3,1.1v.4a1.27,1.27,0,0,0,.1.6,2.19,2.19,0,0,0,.3.5v.1H36.6a2.19,2.19,0,0,1-.3-.5,1.7,1.7,0,0,1-.1-.7V34a1.14,1.14,0,0,0-.3-.8c-.2-.2-.3-.2-.6-.2h-.9v2.7Zm1.7-4h.8a1.88,1.88,0,0,0,.8-.2.78.78,0,0,0,.3-.7.91.91,0,0,0-.3-.7,1,1,0,0,0-.8-.3h-.8Z"/><path class="cls-1" d="M39.3,35.7V28.6H44v1.3H41v1.5h2.5v1.3H41v1.8h3v1.3H39.3Z"/><path class="cls-1" d="M47.3,28.6H49l.9,4.6h0l1.2-4.6h1.2l1.2,4.6h0l.9-4.6H56l-1.6,7.1H52.8l-1.2-4.4h0l-1.2,4.4H48.8Z"/><path class="cls-1" d="M56.9,35.7V28.6h4.7v1.3h-3v1.5H61v1.3H58.5v1.8h3v1.3H56.9Z"/><path class="cls-1" d="M62.7,35.7V28.6H65a4.06,4.06,0,0,1,2.1.5,1.58,1.58,0,0,1,.7,1.5,2.92,2.92,0,0,1-.2.9,1.34,1.34,0,0,1-.7.6,1.46,1.46,0,0,1,.9.6,1.69,1.69,0,0,1,.3,1,1.86,1.86,0,0,1-.7,1.6,3,3,0,0,1-2,.5H62.7Zm1.6-4.1H65a2,2,0,0,0,.9-.2.6.6,0,0,0,.3-.6.91.91,0,0,0-.3-.7c-.2-.2-.5-.2-.9-.2h-.7Zm0,2.9h1.1a1.55,1.55,0,0,0,.8-.2.71.71,0,0,0,.3-.6,1.45,1.45,0,0,0-.2-.7c-.2-.2-.4-.2-.8-.2H64.3Z"/><path class="cls-1" d="M69,33.5h1.6a1.06,1.06,0,0,0,1.2,1.2,1.88,1.88,0,0,0,.8-.2.55.55,0,0,0,.3-.5,1.07,1.07,0,0,0-.2-.6,3.92,3.92,0,0,0-.9-.4,9.65,9.65,0,0,1-2-.9,1.68,1.68,0,0,1-.6-1.4,1.51,1.51,0,0,1,.7-1.4,3.57,3.57,0,0,1,1.9-.6,3.17,3.17,0,0,1,2,.6,1.8,1.8,0,0,1,.7,1.5v.1H72.9a.78.78,0,0,0-.3-.7,1.08,1.08,0,0,0-.8-.2,1.45,1.45,0,0,0-.7.2.57.57,0,0,0,0,1,8.92,8.92,0,0,0,1,.5,4.8,4.8,0,0,1,1.9.9,1.54,1.54,0,0,1,.6,1.4,1.8,1.8,0,0,1-.7,1.5A2.85,2.85,0,0,1,72,36a3.17,3.17,0,0,1-2-.6,2.17,2.17,0,0,1-1-1.9Z"/><path class="cls-1" d="M75.8,35.7V28.6h1.7v7.1Z"/><path class="cls-1" d="M78.3,29.9V28.6h5.4v1.3H81.8v5.8H80.1V29.9Z"/><path class="cls-1" d="M84.5,35.7V28.6h4.7v1.3h-3v1.5h2.5v1.3H86.2v1.8h3v1.3H84.5Z"/><path class="cls-1" d="M13.4,12.6h-.2V11.3a2.93,2.93,0,0,0-2.9-3,3,3,0,0,0-2.9,3v1.3H7.2a.65.65,0,0,0-.6.6V17a.58.58,0,0,0,.6.6h6.2A.65.65,0,0,0,14,17V13.3C14,12.9,13.8,12.6,13.4,12.6Zm-2.5,3.2a.56.56,0,0,1-.5.6.56.56,0,0,1-.5-.6V14.6a.56.56,0,0,1,.5-.6.56.56,0,0,1,.5.6ZM12,12.6H8.7V11.3a1.61,1.61,0,0,1,1.6-1.7,1.67,1.67,0,0,1,1.6,1.7l.1,1.3Z"/><path class="cls-4" d="M132.5,58.6H99.7a4.27,4.27,0,0,1-4.3-4.3V26.8a4.27,4.27,0,0,1,4.3-4.3h32.8a4.27,4.27,0,0,1,4.3,4.3V54.2A4.35,4.35,0,0,1,132.5,58.6Z"/><path class="cls-5" d="M133,22.5H116.3V58.6H133a3.8,3.8,0,0,0,3.8-3.8V26.3A3.8,3.8,0,0,0,133,22.5Z"/><circle class="cls-6" cx="116.1" cy="40.5" r="12.4"/><polygon class="cls-7" points="114.8 45.8 109.6 40.3 111.8 38.3 114.8 41.6 121 35.4 123.1 37.4 114.8 45.8"/><path class="cls-1" d="M8,52.21,6.64,48H7.71l.78,2.74L9.21,48h1.07l.7,2.74.8-2.74h1.09l-1.34,4.18H10.46l-.72-2.69L9,52.21Z"/><path class="cls-1" d="M14.23,52.21,12.91,48H14l.78,2.74L15.49,48h1.07l.7,2.74.8-2.74h1.09L17.8,52.21H16.74L16,49.52l-.71,2.69Z"/><path class="cls-1" d="M20.5,52.21,19.18,48h1.07L21,50.77,21.76,48h1.07l.7,2.74.8-2.74h1.09l-1.34,4.18H23l-.72-2.69-.71,2.69Z"/><path class="cls-1" d="M25.7,52.21V51.1h1.11v1.11Z"/><path class="cls-1" d="M27.89,52.21V46.43H29v2.08a1.57,1.57,0,0,1,1.21-.58,1.63,1.63,0,0,1,1.26.55,2.29,2.29,0,0,1,.5,1.59,2.42,2.42,0,0,1-.51,1.65,1.59,1.59,0,0,1-1.24.58,1.52,1.52,0,0,1-.71-.18,1.69,1.69,0,0,1-.6-.53v.61ZM29,50a1.78,1.78,0,0,0,.2,1,.88.88,0,0,0,.76.44.78.78,0,0,0,.62-.31,1.54,1.54,0,0,0,.26-1,1.64,1.64,0,0,0-.26-1,.82.82,0,0,0-.67-.32.83.83,0,0,0-.66.31A1.42,1.42,0,0,0,29,50Z"/><path class="cls-1" d="M33.69,49.3l-1-.18a1.57,1.57,0,0,1,.58-.9,2.13,2.13,0,0,1,1.23-.29,2.66,2.66,0,0,1,1.1.17,1.1,1.1,0,0,1,.51.45,2.28,2.28,0,0,1,.15,1v1.29a4.5,4.5,0,0,0,.05.81,2.38,2.38,0,0,0,.2.56H35.41c0-.07-.06-.18-.11-.33l0-.13a2,2,0,0,1-.61.41,1.74,1.74,0,0,1-.69.14,1.43,1.43,0,0,1-1-.35,1.16,1.16,0,0,1-.37-.89,1.19,1.19,0,0,1,.17-.63,1.11,1.11,0,0,1,.47-.42,3.69,3.69,0,0,1,.88-.26,6,6,0,0,0,1.08-.27v-.11a.57.57,0,0,0-.16-.46.94.94,0,0,0-.59-.14.79.79,0,0,0-.46.12A.8.8,0,0,0,33.69,49.3Zm1.48.9a6.68,6.68,0,0,1-.67.17,2,2,0,0,0-.6.19.46.46,0,0,0-.22.39.54.54,0,0,0,.17.4.6.6,0,0,0,.44.17,1,1,0,0,0,.57-.2.69.69,0,0,0,.26-.37,2.19,2.19,0,0,0,0-.54Z"/><path class="cls-1" d="M41.16,52.21H40V50.07A3.3,3.3,0,0,0,40,49.2a.61.61,0,0,0-.23-.31.65.65,0,0,0-.38-.11.88.88,0,0,0-.52.16.8.8,0,0,0-.31.42,3.61,3.61,0,0,0-.08,1v1.89H37.34V48h1v.62a1.71,1.71,0,0,1,2-.58,1.12,1.12,0,0,1,.46.34,1.21,1.21,0,0,1,.22.46,3.45,3.45,0,0,1,.06.75Z"/><path class="cls-1" d="M43.38,46.43v2.12a1.66,1.66,0,0,1,2-.48,1.12,1.12,0,0,1,.46.36,1.31,1.31,0,0,1,.21.49,4.41,4.41,0,0,1,.06.83v2.45H45V50a3.27,3.27,0,0,0-.06-.83.55.55,0,0,0-.22-.28.71.71,0,0,0-.4-.1.91.91,0,0,0-.49.13.77.77,0,0,0-.32.4,2.41,2.41,0,0,0-.1.8v2.09H42.27V46.43Z"/><path class="cls-1" d="M47.12,48h1v.57a1.64,1.64,0,0,1,1.3-.67,1.4,1.4,0,0,1,.7.17,1.28,1.28,0,0,1,.48.5,1.94,1.94,0,0,1,.59-.5,1.46,1.46,0,0,1,.68-.17,1.52,1.52,0,0,1,.78.19,1.14,1.14,0,0,1,.48.55,2.38,2.38,0,0,1,.11.87v2.67H52.17V49.82a1.77,1.77,0,0,0-.11-.8.52.52,0,0,0-.47-.24.75.75,0,0,0-.44.14.78.78,0,0,0-.3.42,3,3,0,0,0-.09.86v2H49.65V49.92a3.16,3.16,0,0,0-.06-.79.51.51,0,0,0-.18-.26.58.58,0,0,0-.34-.09.81.81,0,0,0-.46.14.76.76,0,0,0-.29.4,3,3,0,0,0-.09.86v2H47.12Z"/><path class="cls-1" d="M54.38,47.46v-1h1.11v1Zm0,4.75V48h1.11v4.18Z"/><path class="cls-1" d="M56.23,51l1.11-.17a.81.81,0,0,0,.29.49,1,1,0,0,0,.61.17,1.1,1.1,0,0,0,.65-.16A.35.35,0,0,0,59,51a.29.29,0,0,0-.08-.21.87.87,0,0,0-.37-.15,6,6,0,0,1-1.7-.54,1.08,1.08,0,0,1-.5-.94,1.16,1.16,0,0,1,.43-.91,2,2,0,0,1,1.33-.37,2.32,2.32,0,0,1,1.28.28A1.43,1.43,0,0,1,60,49l-1,.19a.65.65,0,0,0-.25-.37.94.94,0,0,0-.53-.13,1.2,1.2,0,0,0-.63.12.26.26,0,0,0-.13.22.25.25,0,0,0,.11.2,4.17,4.17,0,0,0,1,.31,3.08,3.08,0,0,1,1.23.49,1,1,0,0,1,.35.82,1.26,1.26,0,0,1-.48,1,2.12,2.12,0,0,1-1.42.41A2.33,2.33,0,0,1,56.88,52,1.6,1.6,0,0,1,56.23,51Z"/><path class="cls-1" d="M63.85,52.21v-.63a1.62,1.62,0,0,1-.6.53,1.68,1.68,0,0,1-.79.19,1.53,1.53,0,0,1-.76-.19,1.09,1.09,0,0,1-.48-.52,2.31,2.31,0,0,1-.15-.93V48h1.11v1.92A5.33,5.33,0,0,0,62.25,51a.59.59,0,0,0,.22.32.69.69,0,0,0,.41.12.87.87,0,0,0,.51-.16.79.79,0,0,0,.31-.39,4.47,4.47,0,0,0,.08-1.13V48h1.11v4.18Z"/><path class="cls-1" d="M66,52.21V46.43h1.11v2.08a1.57,1.57,0,0,1,1.21-.58,1.63,1.63,0,0,1,1.26.55,2.29,2.29,0,0,1,.5,1.59,2.42,2.42,0,0,1-.51,1.65,1.59,1.59,0,0,1-1.24.58,1.52,1.52,0,0,1-.71-.18,1.69,1.69,0,0,1-.6-.53v.61ZM67.08,50a1.78,1.78,0,0,0,.2,1,.88.88,0,0,0,.76.44.78.78,0,0,0,.62-.31,1.54,1.54,0,0,0,.26-1,1.64,1.64,0,0,0-.26-1,.82.82,0,0,0-.67-.32.83.83,0,0,0-.66.31A1.42,1.42,0,0,0,67.08,50Z"/><path class="cls-1" d="M71,52.21V51.1h1.11v1.11Z"/><path class="cls-1" d="M76.84,49.26l-1.09.2A.79.79,0,0,0,75.5,49,.75.75,0,0,0,75,48.8a.83.83,0,0,0-.66.29,1.46,1.46,0,0,0-.25,1,1.69,1.69,0,0,0,.25,1.05.82.82,0,0,0,.67.31.75.75,0,0,0,.52-.18,1.08,1.08,0,0,0,.28-.62l1.09.18a1.93,1.93,0,0,1-.65,1.13A2,2,0,0,1,75,52.3a1.92,1.92,0,0,1-1.46-.58,2.64,2.64,0,0,1,0-3.22A2,2,0,0,1,75,47.93a2,2,0,0,1,1.21.33A1.83,1.83,0,0,1,76.84,49.26Z"/><path class="cls-1" d="M77.43,50.06A2.26,2.26,0,0,1,77.7,49a1.86,1.86,0,0,1,.77-.79,2.28,2.28,0,0,1,1.11-.27,2.09,2.09,0,0,1,1.56.62,2.13,2.13,0,0,1,.61,1.56,2.15,2.15,0,0,1-.61,1.57,2.07,2.07,0,0,1-1.54.62,2.44,2.44,0,0,1-1.1-.26,1.78,1.78,0,0,1-.79-.76A2.53,2.53,0,0,1,77.43,50.06Zm1.13.06a1.39,1.39,0,0,0,.29,1,1,1,0,0,0,1.46,0,1.41,1.41,0,0,0,.29-1,1.38,1.38,0,0,0-.29-.95,1,1,0,0,0-1.46,0A1.39,1.39,0,0,0,78.56,50.12Z"/><path class="cls-1" d="M82.53,48h1v.57a1.64,1.64,0,0,1,1.3-.67,1.4,1.4,0,0,1,.7.17,1.27,1.27,0,0,1,.48.5,1.94,1.94,0,0,1,.59-.5,1.46,1.46,0,0,1,.68-.17,1.52,1.52,0,0,1,.78.19,1.15,1.15,0,0,1,.48.55,2.38,2.38,0,0,1,.11.87v2.67H87.57V49.82a1.77,1.77,0,0,0-.11-.8.52.52,0,0,0-.47-.24.75.75,0,0,0-.44.14.79.79,0,0,0-.29.42,3,3,0,0,0-.09.86v2H85.05V49.92a3.2,3.2,0,0,0-.06-.79.51.51,0,0,0-.18-.26.58.58,0,0,0-.34-.09.81.81,0,0,0-.46.14.76.76,0,0,0-.29.4,2.94,2.94,0,0,0-.09.86v2H82.53Z"/><path class="cls-1" d="M18.28,15.09l1.49-.14a1.81,1.81,0,0,0,.54,1.1,1.65,1.65,0,0,0,1.11.35,1.7,1.7,0,0,0,1.11-.31.93.93,0,0,0,.37-.73.69.69,0,0,0-.16-.46,1.26,1.26,0,0,0-.55-.33q-.27-.09-1.22-.33a4.14,4.14,0,0,1-1.72-.75,2,2,0,0,1-.7-1.52,1.94,1.94,0,0,1,.33-1.08,2,2,0,0,1,.94-.77,3.79,3.79,0,0,1,1.49-.26,3.19,3.19,0,0,1,2.14.62,2.2,2.2,0,0,1,.76,1.67l-1.53.07a1.3,1.3,0,0,0-.42-.84,1.54,1.54,0,0,0-1-.26,1.74,1.74,0,0,0-1,.27.55.55,0,0,0-.24.47.58.58,0,0,0,.23.46,4,4,0,0,0,1.4.51,7.42,7.42,0,0,1,1.65.54,2.12,2.12,0,0,1,.84.77,2.38,2.38,0,0,1-.06,2.42,2.16,2.16,0,0,1-1,.84,4.28,4.28,0,0,1-1.65.28A3.28,3.28,0,0,1,19.2,17,2.88,2.88,0,0,1,18.28,15.09Z"/><path class="cls-1" d="M26.79,13.74l-1.32-.24a2,2,0,0,1,.76-1.18,2.8,2.8,0,0,1,1.61-.38,3.47,3.47,0,0,1,1.44.23,1.44,1.44,0,0,1,.67.58,3,3,0,0,1,.19,1.3l0,1.69a5.88,5.88,0,0,0,.07,1.06,3.09,3.09,0,0,0,.26.74H29q-.06-.14-.14-.43l-.05-.17a2.61,2.61,0,0,1-.79.54,2.28,2.28,0,0,1-.9.18,1.87,1.87,0,0,1-1.33-.46,1.53,1.53,0,0,1-.49-1.16,1.56,1.56,0,0,1,.22-.83,1.45,1.45,0,0,1,.62-.56,4.85,4.85,0,0,1,1.15-.34A7.83,7.83,0,0,0,28.73,14v-.14a.75.75,0,0,0-.21-.6,1.24,1.24,0,0,0-.78-.18,1,1,0,0,0-.6.15A1.06,1.06,0,0,0,26.79,13.74Zm1.94,1.18q-.28.09-.88.22a2.66,2.66,0,0,0-.79.25.6.6,0,0,0-.28.51.71.71,0,0,0,.23.53.79.79,0,0,0,.58.22,1.25,1.25,0,0,0,.75-.26.91.91,0,0,0,.35-.48,2.85,2.85,0,0,0,.06-.71Z"/><path class="cls-1" d="M30.95,12.07h.8v-.41a2.74,2.74,0,0,1,.15-1,1.16,1.16,0,0,1,.54-.55,2.08,2.08,0,0,1,1-.21,4,4,0,0,1,1.21.19l-.2,1a2.88,2.88,0,0,0-.67-.08.59.59,0,0,0-.45.15.85.85,0,0,0-.14.56v.39h1.08v1.14H33.2v4.34H31.75V13.21h-.8Z"/><path class="cls-1" d="M38.27,15.8l1.44.24a2.37,2.37,0,0,1-.88,1.21,2.59,2.59,0,0,1-1.5.42,2.45,2.45,0,0,1-2.12-.93,3.14,3.14,0,0,1-.54-1.89,3,3,0,0,1,.71-2.13,2.34,2.34,0,0,1,1.8-.77,2.43,2.43,0,0,1,1.93.81,3.58,3.58,0,0,1,.68,2.47H36.16a1.47,1.47,0,0,0,.35,1,1.1,1.1,0,0,0,.84.36.89.89,0,0,0,.57-.19A1.14,1.14,0,0,0,38.27,15.8Zm.08-1.47a1.4,1.4,0,0,0-.33-1,1,1,0,0,0-.75-.33,1,1,0,0,0-.78.35,1.34,1.34,0,0,0-.3.94Z"/><path class="cls-1" d="M43.53,15.09,45,14.94a1.81,1.81,0,0,0,.54,1.1,1.65,1.65,0,0,0,1.11.35,1.7,1.7,0,0,0,1.11-.31.93.93,0,0,0,.37-.73.69.69,0,0,0-.16-.46,1.26,1.26,0,0,0-.55-.33q-.27-.09-1.22-.33a4.14,4.14,0,0,1-1.72-.75,2,2,0,0,1-.7-1.52,1.94,1.94,0,0,1,.33-1.08,2,2,0,0,1,.94-.77,3.79,3.79,0,0,1,1.49-.26,3.19,3.19,0,0,1,2.14.62,2.2,2.2,0,0,1,.76,1.67l-1.53.07a1.3,1.3,0,0,0-.42-.84,1.54,1.54,0,0,0-1-.26,1.74,1.74,0,0,0-1,.27.55.55,0,0,0-.24.47.58.58,0,0,0,.23.46,4,4,0,0,0,1.4.51,7.42,7.42,0,0,1,1.65.54,2.12,2.12,0,0,1,.84.77,2.38,2.38,0,0,1-.06,2.42,2.16,2.16,0,0,1-1,.84,4.28,4.28,0,0,1-1.65.28,3.28,3.28,0,0,1-2.2-.66A2.88,2.88,0,0,1,43.53,15.09Z"/><path class="cls-1" d="M52.4,10v2.78A2.17,2.17,0,0,1,55,12.13a1.48,1.48,0,0,1,.61.47,1.73,1.73,0,0,1,.28.64,5.73,5.73,0,0,1,.07,1.09v3.21H54.49V14.65a4.28,4.28,0,0,0-.08-1.09.71.71,0,0,0-.29-.37.93.93,0,0,0-.52-.14,1.2,1.2,0,0,0-.65.18,1,1,0,0,0-.42.53,3.15,3.15,0,0,0-.13,1v2.74H51V10Z"/><path class="cls-1" d="M57.08,14.73a3,3,0,0,1,.36-1.4,2.44,2.44,0,0,1,1-1,3,3,0,0,1,1.46-.36,2.74,2.74,0,0,1,2,.81,2.79,2.79,0,0,1,.79,2,2.82,2.82,0,0,1-.8,2.06,2.71,2.71,0,0,1-2,.82,3.18,3.18,0,0,1-1.44-.34,2.34,2.34,0,0,1-1-1A3.33,3.33,0,0,1,57.08,14.73Zm1.49.08a1.81,1.81,0,0,0,.39,1.25,1.26,1.26,0,0,0,1.91,0,1.84,1.84,0,0,0,.38-1.26,1.81,1.81,0,0,0-.38-1.24,1.26,1.26,0,0,0-1.91,0A1.81,1.81,0,0,0,58.56,14.81Z"/><path class="cls-1" d="M63.82,12.07h1.35v.8a2,2,0,0,1,.71-.67,2,2,0,0,1,1-.26,2.09,2.09,0,0,1,1.62.75,3,3,0,0,1,.67,2.08,3.12,3.12,0,0,1-.67,2.13,2.09,2.09,0,0,1-1.62.76,1.85,1.85,0,0,1-.82-.18,2.78,2.78,0,0,1-.78-.62v2.76H63.82Zm1.43,2.65a2.11,2.11,0,0,0,.37,1.36,1.12,1.12,0,0,0,.89.44,1,1,0,0,0,.84-.4,2.09,2.09,0,0,0,.34-1.33,2,2,0,0,0-.35-1.28,1.07,1.07,0,0,0-.86-.42,1.11,1.11,0,0,0-.88.41A1.83,1.83,0,0,0,65.26,14.72Z"/><path class="cls-1" d="M70.28,12.07h1.35v.8a2,2,0,0,1,.71-.67,2,2,0,0,1,1-.26,2.09,2.09,0,0,1,1.62.75,3,3,0,0,1,.67,2.08A3.12,3.12,0,0,1,75,16.91a2.09,2.09,0,0,1-1.62.76,1.85,1.85,0,0,1-.82-.18,2.77,2.77,0,0,1-.78-.62v2.76H70.28Zm1.43,2.65a2.11,2.11,0,0,0,.37,1.36,1.12,1.12,0,0,0,.89.44,1,1,0,0,0,.84-.4,2.09,2.09,0,0,0,.33-1.33,2,2,0,0,0-.35-1.28,1.07,1.07,0,0,0-.86-.42,1.11,1.11,0,0,0-.88.41A1.83,1.83,0,0,0,71.71,14.72Z"/><path class="cls-1" d="M76.77,11.33V10h1.45v1.34Zm0,6.22V12.07h1.45v5.48Z"/><path class="cls-1" d="M84.69,17.55H83.24v-2.8a4.34,4.34,0,0,0-.09-1.15.8.8,0,0,0-.3-.41.86.86,0,0,0-.5-.14,1.16,1.16,0,0,0-.68.21,1,1,0,0,0-.41.55,4.71,4.71,0,0,0-.11,1.26v2.48H79.7V12.07H81v.8a2.25,2.25,0,0,1,2.68-.76,1.47,1.47,0,0,1,.6.44,1.61,1.61,0,0,1,.28.61,4.57,4.57,0,0,1,.08,1Z"/><path class="cls-1" d="M86,17.91l1.66.2a.56.56,0,0,0,.19.4,1.09,1.09,0,0,0,.65.15,1.69,1.69,0,0,0,.85-.17.7.7,0,0,0,.29-.37,2.19,2.19,0,0,0,.07-.67v-.8a2,2,0,0,1-1.64.89,2,2,0,0,1-1.75-.93,3.18,3.18,0,0,1-.5-1.84,3,3,0,0,1,.66-2.1,2.14,2.14,0,0,1,1.65-.73,2,2,0,0,1,1.68.89v-.77h1.36V17A4.9,4.9,0,0,1,91,18.44a1.8,1.8,0,0,1-.45.75,2,2,0,0,1-.77.43,4.06,4.06,0,0,1-1.22.15,3.16,3.16,0,0,1-2-.48A1.5,1.5,0,0,1,86,18.08S86,18,86,17.91Zm1.29-3.21A2,2,0,0,0,87.66,16a1,1,0,0,0,.83.41,1.15,1.15,0,0,0,.9-.42,1.81,1.81,0,0,0,.37-1.23,1.91,1.91,0,0,0-.35-1.26,1.11,1.11,0,0,0-.89-.41,1.07,1.07,0,0,0-.86.4A1.9,1.9,0,0,0,87.32,14.7Z"/></svg>